<svg xmlns="http://www.w3.org/2000/svg" xmlns:xlink="http://www.w3.org/1999/xlink" width="23" height="19" version="1.1" viewBox="0 0 23 19"><title>Untitled 13</title><desc>Created with Sketch.</desc><g id="Page-1" fill="none" fill-rule="evenodd" stroke="none" stroke-width="1"><g id="reload" transform="translate(-1.000000, 2.000000)"><g id="Group" transform="translate(5.000000, 0.000000)"><path id="Path-2" stroke="#000" stroke-width="3" d="M0.681340499,4.05985861 C1.55406138,2.29566578 3.47416115,2.00309465e-16 7.55732855,0 C12.1864872,0 14.0354214,2.95065494 14.7298959,4.7323011"/><polygon id="Path-3" fill="#000" fill-rule="nonzero" points="10.269 3.814 14.986 7.259 19.636 3.773" transform="translate(14.952775, 5.515880) rotate(-25.000000) translate(-14.952775, -5.515880)"/></g><g id="Group" transform="translate(10.000000, 10.500000) rotate(-180.000000) translate(-10.000000, -10.500000) translate(0.000000, 6.000000)"><path id="Path-2" stroke="#000" stroke-width="3" d="M0.81846344,3.79488605 C1.7490228,2.07448113 3.67584634,1.9041532e-16 7.55732855,0 C12.1864872,0 14.0354214,2.95065494 14.7298959,4.7323011"/><polygon id="Path-3" fill="#000" fill-rule="nonzero" points="10.639 4.184 14.994 7.233 19.392 3.808" transform="translate(15.015353, 5.520208) rotate(-25.000000) translate(-15.015353, -5.520208)"/></g></g></g></svg>